<svg xmlns="http://www.w3.org/2000/svg" width="1920" height="1200" preserveAspectRatio="none">
  <g fill="none" mask="url(&quot;#a&quot;)">
    <path fill="rgba(46, 52, 64, 1)" d="M0 0h1920v1200H0z"/>
    <path fill="#232730" d="M0 868.365c162.545-3.875 225.131-220.939 346.663-328.947 98.204-87.275 229.539-132.998 298.768-244.66C719.843 174.735 750.379 33.684 747.748-107.51c-2.876-154.364-.087-338.497-117.978-438.188-119.027-100.651-304.066-11.041-455.748-46.965-139.847-33.121-253.074-185.612-393.297-154.12-139.791 31.395-212.908 185.187-288.089 307.15-65.858 106.839-107.157 224.749-116.917 349.875-9.31 119.354 16.91 235.613 62.616 346.262 47.107 114.04 120.775 208.804 204.214 299.7C-248.265 675.148-161.414 872.213 0 868.365"/>
    <path fill="#3a4150" d="M1920 1994.417c143.351-30.928 257.57-122.38 381.006-201.561 123.551-79.255 287.993-126.156 342.402-262.486 54.23-135.88-40.865-280.849-68.196-424.575-25.86-135.989-22.464-275.332-88.077-397.22-77.11-143.247-158.363-325.684-317.982-357.111-161.652-31.828-292.172 130.086-437.102 208.442-112.853 61.014-234.191 104.567-319.34 200.526-85.803 96.696-114.82 223.262-163.116 343.178-64.568 160.316-200.33 309.54-168.16 479.35 33.074 174.585 175.372 322.496 334.894 400.768 153.875 75.501 336.126 46.837 503.671 10.689"/>
  </g>
  <defs>
    <mask id="a">
      <path fill="#fff" d="M0 0h1920v1200H0z"/>
    </mask>
  </defs>
</svg>
