<svg xmlns="http://www.w3.org/2000/svg" width="1920" height="800" preserveAspectRatio="none">
  <g fill="none" mask="url(&quot;#a&quot;)">
    <path fill="rgba(46, 52, 64, 1)" d="M0 0h1920v800H0z"/>
    <path fill="#1e222a" d="M0 758.472c142.749 4.618 290.149-47.57 393.554-146.09 97.076-92.49 74.52-252.302 144.584-366.623 84.838-138.427 291.167-205.225 305.029-366.988 13.591-158.609-107.396-312.792-239.118-402.183-123.225-83.624-285.638-45.535-434.271-54.8-114.657-7.147-223.015-1.637-337.593 6.688-148.463 10.787-314.181-37.916-434.716 49.428-124.491 90.211-198.535 253.627-195.623 407.339 2.817 148.704 134.166 255.495 210.596 383.086 66.792 111.5 110.229 235.847 210.036 319.106C-269.242 677.762-140.935 753.912 0 758.472"/>
    <path fill="#3e4656" d="M1920 1279.857c94.613-3.88 195.964-.037 272.744-55.459 75.513-54.507 82.162-161.368 134.427-238.449 66.556-98.157 200.819-157.371 213.885-275.243 13.239-119.432-52.521-247.573-147.819-320.768-92.155-70.781-226.404-18.146-337.554-52.03-112.927-34.426-202.526-184.291-314.45-146.732-113.282 38.014-108.049 205.054-167.768 308.55-46.031 79.773-121.08 140.428-142.927 229.9-23.136 94.751-18.53 195.312 16.914 286.179 36.648 93.954 97.003 182.375 185.039 231.568 85.934 48.018 189.152 36.517 287.509 32.484"/>
  </g>
  <defs>
    <mask id="a">
      <path fill="#fff" d="M0 0h1920v800H0z"/>
    </mask>
  </defs>
</svg>
