<svg xmlns="http://www.w3.org/2000/svg" xml:space="preserve" width="640" height="237.992" viewBox="0 0 169.333 62.969">
  <path fill="#fff" stroke="#000" stroke-width=".265" d="M0 0h169.333v62.97H0z"/>
  <path fill="#d86613" d="M2.646 2.646h57.67v57.67H2.646z"/>
  <path fill="none" stroke="#fff" stroke-linecap="round" stroke-linejoin="round" stroke-width="1.4894479999999999" d="M20.02 13.093v8.388h5.912l13.786 28.401h9.467v-8.337h-3.67L31.711 13.093ZM24.256 27.98l4.932 10.16-5.355 11.672h-9.889Z"/>
  <path d="M137.852 5.4c-14.381 0-26.087 11.712-26.087 26.088 0 14.376 11.711 26.087 26.087 26.087 14.377 0 26.087-11.711 26.087-26.087S152.23 5.4 137.852 5.4Zm-.038 2.319a1.71 1.716 0 0 1 1.666 1.716 1.716 1.716 0 0 1-3.432 0 1.716 1.716 0 0 1 1.766-1.716zm3.929 2.825a21.12 21.12 0 0 1 14.46 10.298l-2.026 4.57c-.348.789.01 1.716.794 2.07l3.897 1.727a21.12 21.12 0 0 1 .044 3.664h-2.17c-.214 0-.303.143-.303.353v.993c0 2.34-1.319 2.854-2.478 2.98-1.103.128-2.323-.463-2.477-1.136-.652-3.66-1.733-4.437-3.444-5.79 2.125-1.346 4.332-3.338 4.332-5.998 0-2.875-1.97-4.686-3.311-5.574-1.888-1.242-3.974-1.49-4.537-1.49H122.12a21.12 21.12 0 0 1 11.815-6.667l2.644 2.77a1.556 1.556 0 0 0 2.207.05zM117.35 23.248a1.716 1.716 0 0 1 1.667 1.717 1.716 1.716 0 0 1-3.433 0 1.716 1.716 0 0 1 1.766-1.717zm40.922.078a1.716 1.716 0 0 1 1.666 1.716 1.716 1.716 0 0 1-3.432 0 1.716 1.716 0 0 1 1.766-1.716zm-37.688.275h2.991V37.09h-6.037a21.12 21.12 0 0 1-.684-8.063l3.697-1.644a1.563 1.563 0 0 0 .795-2.064zm12.484.144h7.124c.37 0 2.6.425 2.6 2.097 0 1.385-1.711 1.882-3.118 1.882h-6.612Zm0 9.69h5.458c.496 0 2.665.144 3.355 2.915.215.85.695 3.62 1.021 4.508.326.994 1.645 2.98 3.052 2.98h8.907a21.12 21.12 0 0 1-1.954 2.263l-3.625-.778a1.568 1.568 0 0 0-1.86 1.203l-.861 4.018a21.12 21.12 0 0 1-17.61-.083l-.861-4.018a1.562 1.562 0 0 0-1.855-1.203l-3.548.762a21.12 21.12 0 0 1-1.832-2.163h17.257c.193 0 .325-.034.325-.216V37.52c0-.177-.132-.216-.325-.216h-5.05Zm-7.964 13.98a1.716 1.716 0 0 1 1.667 1.716 1.716 1.716 0 0 1-3.433 0 1.716 1.716 0 0 1 1.766-1.716zm25.414.077a1.716 1.716 0 0 1 1.666 1.716 1.716 1.716 0 0 1-3.432 0 1.716 1.716 0 0 1 1.766-1.716z"/>
  <path fill-rule="evenodd" stroke="#000" stroke-linecap="round" stroke-linejoin="round" stroke-width="1.6556099999999998" d="M162.482 31.488a24.63 24.63 0 0 1-24.63 24.63 24.63 24.63 0 0 1-24.63-24.63 24.63 24.63 0 0 1 24.63-24.63 24.63 24.63 0 0 1 24.63 24.63Zm-.463-2.379 3.84 2.379-3.84 2.378 3.3 3.085-4.227 1.584 2.638 3.67-4.465.729 1.876 4.116-4.52-.16 1.038 4.404-4.404-1.037.16 4.52-4.117-1.877-.728 4.465-3.67-2.638-1.584 4.227-3.085-3.3-2.379 3.841-2.378-3.84-3.085 3.3-1.584-4.228-3.67 2.638-.728-4.465-4.117 1.877.16-4.52-4.404 1.037 1.037-4.404-4.52.16 1.877-4.116-4.465-.729 2.638-3.67-4.227-1.584 3.3-3.085-3.841-2.378 3.841-2.379-3.3-3.085 4.227-1.584-2.638-3.67 4.465-.728-1.877-4.117 4.52.16-1.037-4.404 4.404 1.038-.16-4.52 4.117 1.876.728-4.464 3.67 2.637 1.584-4.227 3.085 3.3 2.378-3.84 2.379 3.84 3.085-3.3 1.584 4.227 3.67-2.637.728 4.464 4.117-1.876-.16 4.52 4.404-1.038-1.038 4.404 4.52-.16-1.876 4.117 4.465.728-2.638 3.67 4.227 1.584z"/>
  <text xml:space="preserve" x="125.991" y="58.271" stroke-width=".402" font-family="monospace" font-size="28.911" letter-spacing="0" style="line-height:1.25;-inkscape-font-specification:monospace" transform="translate(-49.998 -16.578)"><tspan x="125.991" y="58.271">+</tspan></text>
</svg>
